<?xml version="1.0" encoding="utf-8"?>
<!-- Generator: Adobe Illustrator 19.0.0, SVG Export Plug-In . SVG Version: 6.00 Build 0)  -->
<svg version="1.1" id="Camada_1" xmlns="http://www.w3.org/2000/svg" xmlns:xlink="http://www.w3.org/1999/xlink" x="0px" y="0px"
	 viewBox="0 0 15 15" style="enable-background:new 0 0 15 15;" xml:space="preserve">
<style type="text/css">
	.st0{opacity:0.5;fill:#FDC120;}
</style>
<path id="XMLID_2_" class="st0" d="M2.4,11.4c0.5,0,0.8,0,1,0c0.7,0,1.3-2.5,1.6-4.1c0.5-2.5,1-4.6,2.4-4.6c1.4,0,1.9,2.1,2.4,4.6
	c0.3,1.6,0.9,4.1,1.6,4.1c0.2,0,0.6,0,1,0c0.2,0,0.4,0,0.7,0h0c1.2-1.8,1.6-4.2,0.7-6.6c-0.7-1.7-2-3-3.7-3.7
	C5.2-0.8,0.6,2.8,0.6,7.5c0,1.4,0.4,2.8,1.2,3.9h0C2,11.4,2.2,11.4,2.4,11.4"/>
<path id="XMLID_1_" class="st0" d="M8.9,7.4C8.6,6,8.1,3.6,7.5,3.6C6.9,3.6,6.4,6,6.1,7.4c-0.5,2.5-1,4.9-2.6,5c-0.2,0-0.5,0-0.9,0
	c1.3,1.2,3,2,4.9,2c1.9,0,3.6-0.8,4.9-2c-0.4,0-0.7,0-0.9,0C9.9,12.4,9.4,10,8.9,7.4"/>
</svg>
